<?xml version="1.0" encoding="utf-8"?>
<!-- Generator: Adobe Illustrator 18.1.0, SVG Export Plug-In . SVG Version: 6.00 Build 0)  -->
<svg version="1.1" id="Layer_1" xmlns="http://www.w3.org/2000/svg" xmlns:xlink="http://www.w3.org/1999/xlink" x="0px" y="0px"
	 viewBox="0 0 880 273" enable-background="new 0 0 880 273" xml:space="preserve">
<path fill="#FFFFFF" d="M5.2,135.2v-9.8c0-10,2.6-17,7.8-20.8c5.2-3.8,11.8-5.7,19.8-5.7c8.1,0,21.1,1.2,39.2,3.6v8.9l-37.3-1.5
	c-0.8,0-1.6,0-2.4,0c-5.1,0-9,0.9-11.9,2.7c-2.8,1.8-4.2,6.1-4.2,12.8v9.8c0,6.2,1.2,10.1,3.7,11.9c2.4,1.8,6.3,2.7,11.6,2.7h21.2
	c15.5,0,23.3,8.5,23.3,25.6v10.1c0,10-3.2,16.8-9.7,20.3c-5.4,2.8-12.2,4.2-20.5,4.2c-3.5,0-9.6-0.4-18.4-1.3
	c-8.8-0.9-15.1-1.7-18.9-2.4v-9c10.9,1.1,23.4,1.6,37.3,1.6c12.7,0,19.1-4.5,19.1-13.4v-10.1c0-4.7-0.9-8.3-2.7-10.8
	c-1.8-2.5-5-3.8-9.6-3.8H31.8c-11.3,0-18.8-2.7-22.2-8.2C6.7,148.1,5.2,142.3,5.2,135.2z"/>
<path fill="#FFFFFF" d="M91.6,208.9V92.2h11v65.6h6l30.3-28.2h15.4L119,163.4l35.2,45.5h-13.7l-31.9-40h-6v40H91.6z"/>
<g>
	<path fill="#FFFFFF" d="M266.6,10.5L266.6,10.5c-2.7,8-11.3,12.6-19.5,10.2c8.2,2.4,13,10.8,11,19l-83.1,224.7l-0.5,0.7h6.8h7.3
		l69.9-226.2c3-7.5,11.3-11.6,19.1-9.3C269.3,27.2,264.5,18.7,266.6,10.5z"/>
	<path fill="#FFFFFF" d="M184,204.4l4.7-14.2l-18.9-60.7h-12.1l19.4,62.8C178.9,197.7,181.2,201.7,184,204.4z"/>
</g>
<path fill="#FFFFFF" d="M237.1,129.7h12.1l23.4,62.9l20.6-62.9h11.9l-8,25.3l17.3,37.6l24.2-62.9h12.1l-30.3,79.2h-11l-17.6-38.8
	l-13,38.8h-11.9L237.1,129.7z"/>
<path fill="#FFFFFF" d="M393.1,209.6c-13.2,0-22.4-2.9-27.5-8.8c-5.1-5.9-7.6-16.4-7.6-31.6c0-15.2,2.5-25.7,7.6-31.5
	c5.1-5.8,14.2-8.7,27.5-8.7c13.2,0,22.3,3,27.3,8.9c5,5.9,7.5,16.5,7.5,31.8c0,15.3-2.5,25.8-7.5,31.5
	C415.4,206.8,406.3,209.6,393.1,209.6z M372.6,147.4c-1,2.2-1.9,5.1-2.5,8.9c-0.7,3.7-1,8.6-1,14.7c0,6.1,0.5,11,1.4,14.9
	c0.9,3.9,2.6,6.7,4.9,8.5c2.3,1.8,4.7,2.9,7.2,3.4c2.4,0.5,5.9,0.7,10.4,0.7c4.5,0,8.1-0.3,10.6-0.7c2.5-0.5,4.9-1.7,7.2-3.5
	c2.2-1.8,3.8-4.7,4.7-8.5c0.9-3.8,1.3-9.1,1.3-15.9c0-6.8-0.4-12.2-1.1-16.3c-0.7-4.1-2.2-7.1-4.4-9.2c-2.2-2-4.5-3.3-7.1-3.8
	c-2.5-0.5-6-0.7-10.4-0.7c-4.4,0-7.7,0.1-9.9,0.4c-2.2,0.3-4.4,1-6.6,2.1C375.2,143.6,373.6,145.2,372.6,147.4z"/>
<path fill="#FFFFFF" d="M444.2,208.9v-79.2h7.8l3.3,10c7.6-4.6,12.3-7.2,14.3-7.8c2-0.6,3.8-1.2,5.4-1.7c3-0.9,6.8-1.3,11.5-1.3
	s7.8,0.4,9.4,1.2v10.9c-2.4-0.6-5.8-0.9-10.2-0.9c-4.4,0-8.3,0.4-11.7,1.2c-3.4,0.8-6.2,1.6-8.2,2.5c-2,0.9-5.5,2.5-10.5,4.9v60.3
	H444.2z"/>
<path fill="#FFFFFF" d="M507.8,208.9V92.2h11v65.6h6l30.3-28.2h15.4l-35.2,33.7l35.2,45.5h-13.7l-31.9-40h-6v40H507.8z"/>
<path fill="#FFFFFF" d="M577.9,155.5v-6.9c0-6.5,1.6-11.4,4.8-14.7c3.2-3.3,9-5,17.4-5c8.4,0,20.8,0.8,37.4,2.4v8.5h-38.9
	c-4.6,0-7.3,0.8-8.4,2.5c-0.8,1.3-1.2,3.4-1.2,6.3v6.9c0,4,0.9,6.4,2.8,7.3c1.6,0.8,3.8,1.2,6.7,1.2H622c6.3,0,11.1,1.8,14.4,5.3
	c3.3,3.5,5,8.2,5,13.9v7.3c0,7.4-1.8,12.4-5.4,15.1c-3.6,2.7-8.2,4-14,4c-9.2,0-22.9-0.9-40.9-2.8v-8.2H622c0-0.1,0.3-0.1,0.8,0
	c0.6,0.1,1.2,0,2.1-0.3c0.8-0.3,1.7-0.6,2.5-1c2-1,3-3.2,3-6.7v-7.3c0-2.8-0.6-4.8-1.9-6.2c-1.2-1.3-3.4-2-6.5-2h-23.6
	c-7.3,0-12.5-1.4-15.7-4.2C579.5,168.1,577.9,162.9,577.9,155.5z"/>
<g>
	<path fill="#FFFFFF" d="M655,208.9V97.6h46.2c18.5,0,27.8,10.9,27.8,32.8c0,19.2-5.7,30.2-17.2,33.1c-2.8,0.8-5.2,1.2-7.1,1.2
		c-1.9,0-3.7,0-5.3-0.1c-1.6-0.1-7-0.5-16.1-1.4c-9.1-0.9-13.9-1.4-14.3-1.6v47.1H655z M700.8,110.9H669v40.4h31.8
		c4.2,0,7.5-1.2,9.9-3.5c2.8-2.8,4.3-8.7,4.3-17.5c-0.1-8.5-1.8-14-5.2-16.6C707.1,111.9,704.1,110.9,700.8,110.9z"/>
	<path fill="#FFFFFF" d="M767.4,132.4c2-1.1,4.8-2.3,8.2-3.4c3.4-1.2,7.4-1.7,11.9-1.7c4.5,0,7.6,0.4,9.3,1.2v13.7
		c-2.6-0.5-6.5-0.8-11.7-0.8c-5.2,0-9.7,0.6-13.5,1.9c-3.8,1.3-8.4,3.6-13.8,6.9v58.7h-14v-80.7h10.6l3.3,10.2
		c0.3-0.2,1.5-1,3.5-2.3C763.3,134.7,765.3,133.5,767.4,132.4z"/>
	<path fill="#FFFFFF" d="M803.7,169.6c0-11,1.2-19.6,3.5-25.7c2.3-6.1,6-10.4,11.1-12.8c5.1-2.5,12.2-3.7,21.3-3.7
		c13.7,0,23.1,3,28.2,9.1c5.1,6.1,7.7,16.9,7.7,32.5c0,15.6-2.6,26.2-7.7,32c-5.1,5.8-14.5,8.7-28.1,8.7c-13.6,0-23-3-28.2-9
		C806.3,194.7,803.7,184.3,803.7,169.6z M819.9,149.9c-0.9,2.2-1.4,4.9-1.8,8.1c-0.3,3.2-0.5,7-0.5,11.3c0,4.4,0.2,8.1,0.5,11.1
		c0.4,3,1,5.5,1.9,7.5c0.9,2,1.9,3.5,3,4.7c1.1,1.2,2.6,2.1,4.5,2.7c2.9,1,6.5,1.5,10.8,1.4c4.3,0,7.4-0.2,9.4-0.5
		c2-0.3,4-0.9,6-1.8c2-1,3.5-2.5,4.5-4.5c2.1-4.4,3.2-11.1,3.2-20.4c0-9.3-0.6-15.5-1.7-18.5c-1.1-3-2.2-5.1-3.1-6.4
		c-1-1.3-2.4-2.3-4.2-3c-2.8-1.1-6.4-1.7-10.8-1.7c-4.4,0-7.4,0.1-9.3,0.3c-1.8,0.2-3.7,0.6-5.5,1.3c-1.9,0.7-3.3,1.6-4.3,2.9
		C821.7,145.9,820.8,147.6,819.9,149.9z"/>
</g>
</svg>
